<svg width="1103" height="33" viewBox="0 0 1103 33" fill="none" xmlns="http://www.w3.org/2000/svg">
<path d="M0.768125 1.28H50.6881V10.4H0.768125V1.28ZM19.7281 9.776H31.7281V32H19.7281V9.776ZM65.7414 11.888H99.5334V21.008H65.7414V11.888ZM98.1894 1.28H110.189V32H98.1894V1.28ZM55.4694 1.28H67.4694V32H55.4694V1.28ZM128.923 19.04V22.88H165.403V32H116.923V1.28H165.307V10.4H128.923V14.24H158.683V19.04H128.923ZM184.805 20.72H197.909C198.133 21.392 198.789 21.968 199.877 22.448C200.965 22.896 202.421 23.248 204.245 23.504C206.101 23.728 208.245 23.84 210.677 23.84C213.077 23.84 214.965 23.776 216.341 23.648C217.749 23.488 218.741 23.232 219.317 22.88C219.893 22.496 220.181 21.984 220.181 21.344C220.181 20.736 219.717 20.272 218.789 19.952C217.861 19.6 216.213 19.36 213.845 19.232C211.477 19.104 208.149 19.04 203.861 19.04C200.661 19.04 197.893 18.896 195.557 18.608C193.253 18.288 191.349 17.808 189.845 17.168C188.373 16.496 187.285 15.664 186.581 14.672C185.877 13.648 185.525 12.432 185.525 11.024C185.525 8.592 186.341 6.592 187.973 5.024C189.637 3.424 192.133 2.24 195.461 1.472C198.821 0.671999 203.013 0.271999 208.037 0.271999C215.397 0.271999 221.013 1.344 224.885 3.488C228.789 5.6 230.741 8.656 230.741 12.656H218.309C218.149 11.6 217.157 10.8 215.333 10.256C213.509 9.68 210.917 9.392 207.557 9.392C204.229 9.392 201.749 9.584 200.117 9.968C198.517 10.352 197.717 11.008 197.717 11.936C197.717 12.416 197.941 12.8 198.389 13.088C198.837 13.376 199.605 13.616 200.693 13.808C201.813 13.968 203.381 14.08 205.397 14.144C207.413 14.208 209.973 14.24 213.077 14.24C216.501 14.24 219.413 14.416 221.813 14.768C224.213 15.088 226.149 15.584 227.621 16.256C229.125 16.928 230.213 17.792 230.885 18.848C231.557 19.872 231.893 21.088 231.893 22.496C231.893 24.928 231.125 26.912 229.589 28.448C228.053 29.984 225.621 31.12 222.293 31.856C218.965 32.592 214.613 32.96 209.237 32.96C206.197 32.96 203.397 32.784 200.837 32.432C198.309 32.08 196.053 31.568 194.069 30.896C192.085 30.192 190.405 29.344 189.029 28.352C187.653 27.328 186.597 26.192 185.861 24.944C185.157 23.664 184.805 22.256 184.805 20.72ZM248.293 24.08V15.68H272.245C273.205 15.68 274.005 15.536 274.645 15.248C275.317 14.928 275.653 14.272 275.653 13.28C275.653 12.256 275.317 11.6 274.645 11.312C274.005 11.024 273.205 10.88 272.245 10.88H249.061V32H237.061V1.28H270.373C272.773 1.28 275.013 1.456 277.093 1.808C279.205 2.128 281.045 2.72 282.613 3.584C284.181 4.448 285.413 5.664 286.309 7.232C287.205 8.8 287.653 10.816 287.653 13.28C287.653 15.744 287.205 17.696 286.309 19.136C285.413 20.576 284.181 21.648 282.613 22.352C281.045 23.056 279.205 23.52 277.093 23.744C275.013 23.968 272.773 24.08 270.373 24.08H248.293ZM296.216 27.344V20.144H329.048V27.344H296.216ZM285.464 32L306.056 1.28H319.4L340.184 32H326.984L309.176 4.496H316.328L298.664 32H285.464ZM398.053 19.184C397.893 22.224 396.789 24.768 394.741 26.816C392.693 28.864 389.669 30.4 385.669 31.424C381.701 32.448 376.677 32.96 370.597 32.96C365.957 32.96 361.797 32.704 358.117 32.192C354.437 31.712 351.301 30.88 348.709 29.696C346.117 28.48 344.133 26.832 342.757 24.752C341.381 22.672 340.693 20.048 340.693 16.88C340.693 13.712 341.381 11.072 342.757 8.96C344.133 6.816 346.117 5.12 348.709 3.872C351.301 2.592 354.437 1.68 358.117 1.136C361.797 0.591999 365.957 0.319999 370.597 0.319999C376.677 0.319999 381.717 0.879999 385.717 2C389.717 3.088 392.741 4.704 394.789 6.848C396.837 8.992 397.941 11.6 398.101 14.672H385.621C385.237 13.648 384.533 12.752 383.509 11.984C382.485 11.184 380.949 10.56 378.901 10.112C376.853 9.664 374.085 9.44 370.597 9.44C366.501 9.44 363.173 9.696 360.613 10.208C358.053 10.688 356.181 11.472 354.997 12.56C353.813 13.648 353.221 15.088 353.221 16.88C353.221 18.512 353.813 19.84 354.997 20.864C356.181 21.888 358.053 22.64 360.613 23.12C363.173 23.6 366.501 23.84 370.597 23.84C374.085 23.84 376.837 23.632 378.853 23.216C380.901 22.8 382.437 22.24 383.461 21.536C384.485 20.8 385.189 20.016 385.573 19.184H398.053ZM416.36 19.04V22.88H452.84V32H404.36V1.28H452.744V10.4H416.36V14.24H446.12V19.04H416.36ZM474.643 1.28H486.643V32H474.643V1.28ZM492.399 20.72H505.503C505.727 21.392 506.383 21.968 507.471 22.448C508.559 22.896 510.015 23.248 511.839 23.504C513.695 23.728 515.839 23.84 518.271 23.84C520.671 23.84 522.559 23.776 523.935 23.648C525.343 23.488 526.335 23.232 526.911 22.88C527.487 22.496 527.775 21.984 527.775 21.344C527.775 20.736 527.311 20.272 526.383 19.952C525.455 19.6 523.807 19.36 521.439 19.232C519.071 19.104 515.743 19.04 511.455 19.04C508.255 19.04 505.487 18.896 503.151 18.608C500.847 18.288 498.943 17.808 497.439 17.168C495.967 16.496 494.879 15.664 494.175 14.672C493.471 13.648 493.119 12.432 493.119 11.024C493.119 8.592 493.935 6.592 495.567 5.024C497.231 3.424 499.727 2.24 503.055 1.472C506.415 0.671999 510.607 0.271999 515.631 0.271999C522.991 0.271999 528.607 1.344 532.479 3.488C536.383 5.6 538.335 8.656 538.335 12.656H525.903C525.743 11.6 524.751 10.8 522.927 10.256C521.103 9.68 518.511 9.392 515.151 9.392C511.823 9.392 509.343 9.584 507.711 9.968C506.111 10.352 505.311 11.008 505.311 11.936C505.311 12.416 505.535 12.8 505.983 13.088C506.431 13.376 507.199 13.616 508.287 13.808C509.407 13.968 510.975 14.08 512.991 14.144C515.007 14.208 517.567 14.24 520.671 14.24C524.095 14.24 527.007 14.416 529.407 14.768C531.807 15.088 533.743 15.584 535.215 16.256C536.719 16.928 537.807 17.792 538.479 18.848C539.151 19.872 539.487 21.088 539.487 22.496C539.487 24.928 538.719 26.912 537.183 28.448C535.647 29.984 533.215 31.12 529.887 31.856C526.559 32.592 522.207 32.96 516.831 32.96C513.791 32.96 510.991 32.784 508.431 32.432C505.903 32.08 503.647 31.568 501.663 30.896C499.679 30.192 497.999 29.344 496.623 28.352C495.247 27.328 494.191 26.192 493.455 24.944C492.751 23.664 492.399 22.256 492.399 20.72ZM574.394 32L557.21 1.28H570.746L585.242 29.84L580.682 29.936L594.266 1.28H608.762L622.346 29.936L617.786 29.84L632.282 1.28H645.626L628.634 32H612.41L599.162 6.128H603.866L590.618 32H574.394ZM651.341 27.344V20.144H684.173V27.344H651.341ZM640.589 32L661.181 1.28H674.525L695.309 32H682.109L664.301 4.496H671.453L653.789 32H640.589ZM699.877 1.28H711.877V32H699.877V1.28ZM717.393 1.28H767.313V10.4H717.393V1.28ZM736.353 9.776H748.353V32H736.353V9.776ZM772.814 1.28H784.814V32H772.814V1.28ZM840.395 22.592L835.931 25.136V1.28H847.931V32H835.931L799.787 11.072L804.251 8.48V32H792.251V1.28H804.251L840.395 22.592ZM882.625 32.96C878.465 32.96 874.641 32.704 871.153 32.192C867.697 31.712 864.689 30.88 862.129 29.696C859.601 28.48 857.633 26.832 856.225 24.752C854.849 22.672 854.161 20.048 854.161 16.88C854.161 13.712 854.865 11.072 856.273 8.96C857.681 6.816 859.697 5.12 862.321 3.872C864.977 2.592 868.129 1.68 871.777 1.136C875.457 0.591999 879.553 0.319999 884.065 0.319999C889.985 0.319999 894.945 0.863998 898.945 1.952C902.977 3.04 906.049 4.592 908.161 6.608C910.273 8.592 911.409 10.96 911.569 13.712H899.089C898.705 13.008 898.001 12.336 896.977 11.696C895.953 11.024 894.417 10.48 892.369 10.064C890.321 9.648 887.553 9.44 884.065 9.44C879.969 9.44 876.641 9.696 874.081 10.208C871.521 10.688 869.649 11.472 868.465 12.56C867.281 13.648 866.689 15.088 866.689 16.88C866.689 18.448 867.297 19.744 868.513 20.768C869.729 21.792 871.681 22.56 874.369 23.072C877.057 23.584 880.609 23.84 885.025 23.84C888.129 23.84 890.817 23.712 893.089 23.456C895.393 23.168 897.473 22.736 899.329 22.16C901.217 21.584 903.089 20.864 904.945 20L906.097 21.392C904.113 25.136 901.169 28 897.265 29.984C893.361 31.968 888.481 32.96 882.625 32.96ZM902.833 32C902.833 31.04 902.961 29.952 903.217 28.736C903.473 27.52 903.793 26.256 904.177 24.944C904.593 23.6 904.993 22.336 905.377 21.152H886.657V16.112H912.241V32H902.833ZM982.197 1.28V10.4H945.813V14.48H975.573V22.64H945.813V32H933.813V1.28H982.197ZM1014.59 32.96C1007.62 32.96 1002 32.352 997.744 31.136C993.488 29.888 990.384 28.064 988.432 25.664C986.512 23.232 985.552 20.224 985.552 16.64C985.552 13.056 986.512 10.064 988.432 7.664C990.384 5.232 993.488 3.408 997.744 2.192C1002 0.943998 1007.62 0.319999 1014.59 0.319999C1021.57 0.319999 1027.18 0.943998 1031.44 2.192C1035.7 3.408 1038.78 5.232 1040.7 7.664C1042.66 10.064 1043.63 13.056 1043.63 16.64C1043.63 20.224 1042.66 23.232 1040.7 25.664C1038.78 28.064 1035.7 29.888 1031.44 31.136C1027.18 32.352 1021.57 32.96 1014.59 32.96ZM1014.59 23.84C1017.89 23.84 1020.74 23.648 1023.14 23.264C1025.54 22.848 1027.39 22.128 1028.7 21.104C1030.02 20.048 1030.67 18.56 1030.67 16.64C1030.67 14.72 1030.02 13.248 1028.7 12.224C1027.39 11.168 1025.54 10.448 1023.14 10.064C1020.74 9.648 1017.89 9.44 1014.59 9.44C1011.3 9.44 1008.4 9.648 1005.9 10.064C1003.44 10.448 1001.5 11.168 1000.1 12.224C998.72 13.248 998.032 14.72 998.032 16.64C998.032 18.56 998.72 20.048 1000.1 21.104C1001.5 22.128 1003.44 22.848 1005.9 23.264C1008.4 23.648 1011.3 23.84 1014.59 23.84ZM1049.88 32V1.28H1086.98C1089.89 1.28 1092.5 1.616 1094.8 2.288C1097.14 2.928 1098.98 4.016 1100.32 5.552C1101.7 7.088 1102.39 9.184 1102.39 11.84C1102.39 13.6 1102.07 15.056 1101.43 16.208C1100.79 17.36 1099.91 18.256 1098.79 18.896C1097.67 19.536 1096.39 20 1094.95 20.288C1093.51 20.576 1092 20.752 1090.44 20.816L1086.93 20.144C1090.74 20.176 1093.67 20.336 1095.72 20.624C1097.8 20.912 1099.24 21.44 1100.04 22.208C1100.87 22.944 1101.28 24.016 1101.28 25.424V32H1089.28V26.864C1089.28 25.904 1089.09 25.184 1088.71 24.704C1088.36 24.192 1087.56 23.84 1086.31 23.648C1085.09 23.456 1083.2 23.36 1080.64 23.36H1061.88V32H1049.88ZM1061.88 15.344H1086.98C1087.94 15.344 1088.74 15.184 1089.38 14.864C1090.05 14.544 1090.39 13.936 1090.39 13.04C1090.39 12.208 1090.05 11.648 1089.38 11.36C1088.74 11.04 1087.94 10.88 1086.98 10.88H1061.88V15.344Z" fill="white"/>
</svg>
