<svg width="1100" height="212" viewBox="0 0 1100 212" fill="none" xmlns="http://www.w3.org/2000/svg">
<path d="M329.183 6.59999L203.633 154.47V205H126.133V154.47L0.583203 6.59999H92.0332L194.023 135.25H136.673L237.733 6.59999H329.183ZM515.183 211.2C470.13 211.2 433.86 207.273 406.373 199.42C378.887 191.36 358.84 179.58 346.233 164.08C333.833 148.373 327.633 128.947 327.633 105.8C327.633 82.6533 333.833 63.33 346.233 47.83C358.84 32.1233 378.887 20.3433 406.373 12.49C433.86 4.42999 470.13 0.399992 515.183 0.399992C560.237 0.399992 596.507 4.42999 623.993 12.49C651.48 20.3433 671.423 32.1233 683.823 47.83C696.43 63.33 702.733 82.6533 702.733 105.8C702.733 128.947 696.43 148.373 683.823 164.08C671.423 179.58 651.48 191.36 623.993 199.42C596.507 207.273 560.237 211.2 515.183 211.2ZM515.183 152.3C536.47 152.3 554.863 151.06 570.363 148.58C585.863 145.893 597.85 141.243 606.323 134.63C614.797 127.81 619.033 118.2 619.033 105.8C619.033 93.4 614.797 83.8933 606.323 77.28C597.85 70.46 585.863 65.81 570.363 63.33C554.863 60.6433 536.47 59.3 515.183 59.3C493.897 59.3 475.193 60.6433 459.073 63.33C443.16 65.81 430.657 70.46 421.563 77.28C412.677 83.8933 408.233 93.4 408.233 105.8C408.233 118.2 412.677 127.81 421.563 134.63C430.657 141.243 443.16 145.893 459.073 148.58C475.193 151.06 493.897 152.3 515.183 152.3ZM1021.75 91.85V6.59999H1099.25V105.8C1099.25 123.367 1095.94 138.35 1089.33 150.75C1082.92 162.943 1073.93 173.07 1062.36 181.13C1050.78 188.983 1037.45 195.08 1022.37 199.42C1007.28 203.76 991.057 206.757 973.697 208.41C956.544 210.27 939.081 211.2 921.307 211.2C902.501 211.2 884.314 210.27 866.747 208.41C849.181 206.757 832.854 203.76 817.767 199.42C802.887 195.08 789.867 188.983 778.707 181.13C767.547 173.07 758.764 162.943 752.357 150.75C746.157 138.35 743.057 123.367 743.057 105.8V6.59999H820.557V91.85C820.557 108.383 824.587 120.99 832.647 129.67C840.707 138.35 852.177 144.343 867.057 147.65C882.144 150.75 900.227 152.3 921.307 152.3C941.767 152.3 959.541 150.75 974.627 147.65C989.714 144.343 1001.29 138.35 1009.35 129.67C1017.61 120.99 1021.75 108.383 1021.75 91.85Z" fill="white"/>
</svg>
